<?xml version="1.0" encoding="utf-8"?>
<!-- Generator: Adobe Illustrator 24.3.0, SVG Export Plug-In . SVG Version: 6.00 Build 0)  -->
<svg version="1.1" id="Vrstva_1" xmlns="http://www.w3.org/2000/svg" xmlns:xlink="http://www.w3.org/1999/xlink" x="0px" y="0px"
	 viewBox="0 0 991.759 208.055" enable-background="new 0 0 991.759 208.055" xml:space="preserve">
<g>
	<g>
		<path fill="#E9F2F4" d="M143.852,198.68c-41.178,0-77.479-27.722-88.275-67.414c-0.733-2.693,0.815-5.497,3.451-6.249
			c4.159-1.187,9.498-2.105,15.867-2.73c0.63-0.062,1.27-0.094,1.901-0.094c7.285,0,13.852,3.999,17.137,10.435
			c2.567,5.027,5.895,9.646,9.891,13.729c10.348,10.571,24.755,16.707,39.528,16.836l0.5,0.002c14.959,0,29.022-5.825,39.599-16.402
			c4.14-4.14,7.582-8.845,10.229-13.984c3.375-6.551,9.971-10.62,17.214-10.62c0.616,0,1.24,0.03,1.855,0.091
			c6.384,0.622,11.737,1.539,15.912,2.726c2.646,0.752,4.202,3.558,3.469,6.254C221.336,170.955,185.035,198.68,143.852,198.68z"/>
		<path fill="#FFFFFF" d="M210.894,123.687c0.568,0,1.143,0.028,1.709,0.083c6.296,0.614,11.561,1.514,15.648,2.676
			c1.859,0.528,2.95,2.51,2.431,4.417c-10.617,39.046-46.323,66.317-86.831,66.317c-40.503,0-76.208-27.267-86.828-66.308
			c-0.518-1.906,0.565-3.885,2.415-4.413c4.073-1.162,9.322-2.064,15.602-2.68c0.582-0.057,1.172-0.086,1.754-0.086
			c6.719,0,12.773,3.685,15.802,9.616c2.636,5.163,6.052,9.906,10.154,14.096c10.625,10.854,25.418,17.154,40.587,17.286
			l0.514,0.002c15.359,0,29.799-5.981,40.659-16.842c4.25-4.25,7.783-9.08,10.502-14.358
			C198.129,127.445,204.214,123.687,210.894,123.687 M210.894,120.687c-7.774,0-14.933,4.415-18.548,11.433
			c-2.556,4.962-5.896,9.55-9.956,13.611c-10.294,10.294-23.98,15.963-38.538,15.963c-0.163,0-0.325-0.001-0.488-0.002
			c-14.458-0.126-28.355-6.052-38.469-16.385c-3.918-4.003-7.147-8.505-9.626-13.362c-3.56-6.973-10.751-11.252-18.473-11.252
			c-0.679,0-1.362,0.033-2.047,0.1c-5.38,0.528-11.243,1.386-16.132,2.781c-3.456,0.986-5.43,4.617-4.487,8.085
			c10.74,39.484,46.836,68.52,89.723,68.52c42.89,0,78.988-29.041,89.725-68.529c0.945-3.476-1.041-7.105-4.506-8.09
			c-4.907-1.395-10.789-2.251-16.177-2.776C212.225,120.719,211.556,120.687,210.894,120.687L210.894,120.687z"/>
	</g>
	<g>
		<path fill="#E9F2F4" d="M143.852,114.214c-18.379,0-36.201-0.201-52.968-0.598c-14.576-0.345-27.783-0.825-39.252-1.427
			c-24.151-1.268-34.475-2.594-38.884-3.476c4.809-0.841,13.707-1.89,21.921-2.652c9.571-0.728,17.481-8.23,18.783-17.837
			l0.147-0.934c3.5-21.121,14.437-40.465,30.797-54.466c16.54-14.155,37.654-21.95,59.455-21.95s42.915,7.795,59.455,21.95
			c16.36,14.001,27.297,33.345,30.797,54.468l0.147,0.929c1.302,9.61,9.212,17.112,18.809,17.842
			c8.196,0.761,17.088,1.81,21.896,2.65c-4.409,0.882-14.733,2.208-38.884,3.476c-11.469,0.602-24.676,1.082-39.252,1.427
			C180.053,114.013,162.231,114.214,143.852,114.214z M78.23,104.657c-0.749,0.164-1.253,0.865-1.171,1.626
			c0.082,0.762,0.725,1.339,1.491,1.339H212.49c0.766,0,1.409-0.577,1.491-1.339c0.083-0.762-0.422-1.463-1.171-1.626l-13.037-2.85
			c-0.049-2.071-0.125-4.352-0.234-5.393c-1.346-12.836-6.91-24.473-16.088-33.651c-10.577-10.577-24.64-16.402-39.598-16.402
			s-29.021,5.825-39.598,16.402c-9.355,9.354-14.941,21.227-16.156,34.333c-0.092,0.987-0.154,3.493-0.191,5.445L78.23,104.657z"/>
		<path fill="#FFFFFF" d="M143.852,12.374c21.443,0,42.211,7.668,58.479,21.59c16.092,13.772,26.851,32.799,30.293,53.573
			c0.041,0.25,0.082,0.5,0.122,0.754l0.019,0.134c1.396,10.303,9.883,18.35,20.131,19.13c3.579,0.332,7.386,0.731,10.925,1.145
			c-6.133,0.625-15.008,1.318-27.828,1.991c-11.456,0.601-24.648,1.081-39.208,1.425c-16.742,0.396-34.551,0.597-52.933,0.597
			s-36.191-0.201-52.933-0.597c-14.561-0.344-27.752-0.824-39.208-1.425c-12.822-0.673-21.697-1.366-27.83-1.991
			c3.528-0.413,7.321-0.81,10.878-1.141c10.297-0.784,18.784-8.831,20.181-19.135l0.02-0.137c0.039-0.25,0.08-0.5,0.121-0.75
			c3.442-20.775,14.201-39.801,30.293-53.574C101.641,20.042,122.409,12.374,143.852,12.374 M86.432,101.329l-8.522,1.863
			c-1.497,0.327-2.507,1.73-2.342,3.253s1.451,2.678,2.983,2.678h119.635h14.304c1.532,0,2.818-1.155,2.983-2.678
			c0.165-1.523-0.845-2.926-2.342-3.253l-11.888-2.598c-0.05-1.74-0.119-3.449-0.212-4.335c-1.383-13.182-7.095-25.131-16.52-34.556
			c-10.86-10.861-25.3-16.842-40.659-16.842c-15.359,0-29.799,5.981-40.659,16.842c-9.605,9.606-15.342,21.797-16.589,35.256
			C86.528,97.782,86.472,99.529,86.432,101.329 M143.852,9.374c-46.139,0-84.43,33.604-91.732,77.673
			c-0.043,0.258-0.085,0.517-0.125,0.776c-0.009,0.06-0.019,0.127-0.029,0.2c-1.212,8.947-8.433,15.86-17.435,16.545
			c0,0-26.195,2.431-26.195,3.933c0,2.036,18.228,3.875,43.217,5.186c11.341,0.595,24.629,1.082,39.295,1.429
			c16.238,0.384,34.161,0.598,53.004,0.598c18.843,0,36.766-0.214,53.004-0.598c14.666-0.347,27.953-0.833,39.295-1.429
			c24.989-1.311,43.217-3.15,43.217-5.186c0-1.502-26.195-3.933-26.195-3.933c-9.003-0.685-16.223-7.598-17.435-16.545
			c-0.01-0.073-0.02-0.14-0.029-0.2c-0.041-0.259-0.082-0.518-0.125-0.776C228.282,42.979,189.991,9.374,143.852,9.374
			L143.852,9.374z M78.55,106.122l10.836-2.369c0.037-2.327,0.105-5.441,0.205-6.519c1.169-12.622,6.647-24.336,15.723-33.411
			c10.294-10.294,23.98-15.963,38.538-15.963c14.558,0,28.244,5.669,38.538,15.963c8.916,8.916,14.36,20.379,15.657,32.747
			c0.12,1.144,0.204,4.051,0.253,6.45l14.19,3.102c0,0-14.195,0-14.304,0C196.578,106.122,78.55,106.122,78.55,106.122
			L78.55,106.122z"/>
	</g>
</g>
<g>
	<g>
		<g>
			<path fill="#FFFFFF" d="M847.821,138.177c-2.01-0.571-4.42-0.922-6.627-1.137c-3.493-0.341-6.811,1.524-8.419,4.644
				c-1.047,2.033-2.415,3.913-4.079,5.576c-4.264,4.264-9.95,6.591-15.988,6.539c-5.923-0.051-11.617-2.48-15.76-6.713
				c-1.605-1.64-2.928-3.484-3.944-5.474c-1.587-3.108-4.934-4.91-8.407-4.569c-2.204,0.216-4.606,0.568-6.609,1.139
				c-1.416,0.404-2.225,1.892-1.838,3.312c4.4,16.176,19.188,28.072,36.758,28.072c17.571,0,32.36-11.898,36.759-28.075
				C850.054,140.067,849.24,138.58,847.821,138.177z"/>
			<path fill="#FFFFFF" d="M857.695,130.396c-3.688-0.281-6.646-3.113-7.143-6.778c-0.004-0.03-0.008-0.057-0.012-0.082
				c-0.017-0.106-0.034-0.212-0.051-0.318c-2.992-18.054-18.679-31.821-37.581-31.821s-34.59,13.767-37.581,31.821
				c-0.018,0.106-0.035,0.212-0.051,0.318c-0.004,0.025-0.008,0.052-0.012,0.082c-0.497,3.665-3.455,6.498-7.143,6.778
				c0,0-10.732,0.996-10.732,1.611c0,0.834,7.468,1.587,17.705,2.125c4.646,0.244,10.09,0.443,16.098,0.585
				c6.653,0.157,13.995,0.245,21.715,0.245c7.72,0,15.062-0.087,21.715-0.245c6.008-0.142,11.452-0.341,16.098-0.585
				c10.238-0.537,17.705-1.291,17.705-2.125C868.426,131.392,857.695,130.396,857.695,130.396z M835.167,131.032
				c-0.659,0-49.013,0-49.013,0l4.44-0.97c0.015-0.953,0.043-2.229,0.084-2.671c0.479-5.171,2.723-9.97,6.441-13.688
				c4.217-4.217,9.824-6.54,15.788-6.54c5.964,0,11.571,2.323,15.788,6.54c3.653,3.653,5.883,8.349,6.415,13.416
				c0.049,0.469,0.084,1.66,0.104,2.642l5.813,1.271C841.027,131.032,835.212,131.032,835.167,131.032z"/>
		</g>
		<path fill="#FFFFFF" d="M365.124,145.662c0,3.967-0.768,7.3-2.302,10.001c-1.536,2.702-3.57,4.872-6.106,6.513
			c-2.536,1.642-5.422,2.821-8.658,3.539c-3.237,0.718-6.557,1.077-9.96,1.077H309.87V94.171h28.228
			c2.736,0,5.539,0.291,8.408,0.872s5.472,1.573,7.808,2.975c2.336,1.402,4.237,3.3,5.706,5.692
			c1.467,2.395,2.202,5.437,2.202,9.129c0,4.035-1.068,7.369-3.203,10.001c-2.137,2.633-4.939,4.53-8.408,5.692v0.205
			c2.002,0.344,3.887,0.975,5.655,1.897c1.768,0.924,3.304,2.104,4.604,3.539c1.302,1.437,2.335,3.112,3.104,5.026
			C364.74,141.115,365.124,143.27,365.124,145.662z M345.705,115.198c0-2.462-0.918-4.257-2.752-5.385
			c-1.837-1.129-4.555-1.693-8.158-1.693h-8.408v14.976h9.209c3.203,0,5.688-0.666,7.457-2
			C344.821,119.763,345.705,117.798,345.705,115.198z M348.008,144.021c0-3.008-1.102-5.093-3.304-6.257
			c-2.202-1.162-5.139-1.743-8.809-1.743h-9.509v16.616h9.609c1.334,0,2.718-0.118,4.154-0.358c1.434-0.239,2.735-0.667,3.903-1.282
			c1.167-0.615,2.118-1.487,2.853-2.616C347.641,147.252,348.008,145.8,348.008,144.021z"/>
		<path fill="#FFFFFF" d="M386.445,166.792V94.171h17.217v57.338h27.427v15.283H386.445z"/>
		<path fill="#FFFFFF" d="M497.151,166.792l-5.505-14.258h-27.427l-5.205,14.258h-18.618l29.729-72.621h16.616l29.429,72.621
			H497.151z M478.132,113.557l-9.009,24.926h17.817L478.132,113.557z"/>
		<path fill="#FFFFFF" d="M581.033,165.51c-4.604,2.154-9.91,3.231-15.916,3.231c-5.472,0-10.527-0.924-15.164-2.77
			c-4.64-1.847-8.659-4.462-12.062-7.847c-3.403-3.386-6.072-7.437-8.008-12.155s-2.902-9.914-2.902-15.591
			c0-5.812,0.983-11.078,2.953-15.796c1.968-4.719,4.688-8.735,8.157-12.053c3.47-3.315,7.541-5.862,12.212-7.642
			c4.671-1.777,9.71-2.667,15.115-2.667c5.005,0,9.925,0.907,14.765,2.719c4.837,1.812,8.758,4.462,11.761,7.949l-11.611,11.898
			c-1.602-2.257-3.703-3.932-6.306-5.026c-2.603-1.093-5.272-1.642-8.008-1.642c-3.003,0-5.756,0.564-8.258,1.693
			c-2.503,1.128-4.655,2.684-6.457,4.667s-3.203,4.325-4.204,7.025c-1.001,2.702-1.501,5.659-1.501,8.873
			c0,3.282,0.5,6.292,1.501,9.026c1.001,2.735,2.386,5.077,4.154,7.026c1.768,1.948,3.887,3.471,6.356,4.564
			c2.468,1.095,5.171,1.641,8.107,1.641c3.403,0,6.372-0.683,8.909-2.051c2.535-1.367,4.57-3.145,6.105-5.334l11.912,11.488
			C589.506,160.433,585.637,163.355,581.033,165.51z"/>
		<path fill="#FFFFFF" d="M653.202,166.792l-26.325-33.438h-0.2v33.438H609.96V94.171h16.717v29.541h0.3l25.325-29.541h21.421
			l-30.53,33.438l32.332,39.183H653.202z"/>
		<path fill="#FFFFFF" d="M735.883,166.792v-30.361h-27.627v30.361h-17.117V94.171h17.117v27.489h27.627V94.171h17.116v72.621
			H735.883z"/>
		<path fill="#FFFFFF" d="M872.816,166.792V94.171h17.217v57.338h27.427v15.283H872.816z"/>
		<path fill="#FFFFFF" d="M935.475,166.792V94.171h47.646v14.771h-31.13v13.744h29.429v14.053h-29.429v15.078h32.932v14.976H935.475
			z"/>
	</g>
	<g>
		<path fill="#FFFFFF" d="M325.154,51.252c-0.607-0.792-1.402-1.422-2.382-1.89c-0.98-0.467-1.926-0.7-2.838-0.7
			c-0.47,0-0.945,0.043-1.429,0.128s-0.918,0.248-1.305,0.488s-0.711,0.552-0.974,0.934s-0.394,0.87-0.394,1.464
			c0,0.51,0.104,0.934,0.311,1.273s0.511,0.637,0.912,0.892c0.399,0.255,0.876,0.488,1.429,0.7c0.552,0.212,1.173,0.432,1.864,0.658
			c0.994,0.34,2.029,0.715,3.106,1.125s2.057,0.955,2.94,1.634s1.616,1.521,2.195,2.525c0.58,1.005,0.87,2.257,0.87,3.757
			c0,1.727-0.311,3.219-0.932,4.478c-0.622,1.26-1.457,2.3-2.506,3.12c-1.05,0.821-2.251,1.429-3.604,1.825
			c-1.353,0.396-2.748,0.594-4.184,0.594c-2.099,0-4.128-0.375-6.089-1.124c-1.961-0.75-3.59-1.818-4.888-3.205l4.64-4.839
			c0.718,0.906,1.663,1.663,2.837,2.271c1.174,0.609,2.341,0.913,3.5,0.913c0.524,0,1.036-0.057,1.533-0.17
			c0.497-0.112,0.932-0.297,1.305-0.552s0.669-0.595,0.891-1.019c0.221-0.425,0.331-0.934,0.331-1.528
			c0-0.565-0.139-1.047-0.414-1.443c-0.276-0.396-0.67-0.757-1.181-1.082s-1.146-0.622-1.905-0.892
			c-0.76-0.269-1.622-0.559-2.589-0.87c-0.939-0.311-1.857-0.679-2.755-1.104s-1.698-0.969-2.402-1.634s-1.271-1.472-1.698-2.42
			c-0.429-0.947-0.642-2.101-0.642-3.459c0-1.669,0.331-3.099,0.994-4.287c0.662-1.188,1.532-2.165,2.609-2.929
			s2.292-1.322,3.646-1.677c1.353-0.354,2.719-0.53,4.101-0.53c1.656,0,3.348,0.312,5.074,0.934
			c1.725,0.623,3.237,1.543,4.535,2.759L325.154,51.252z"/>
		<path fill="#FFFFFF" d="M362.412,67.105c-0.595,1.485-1.443,2.759-2.548,3.819c-1.104,1.062-2.438,1.89-3.997,2.483
			c-1.561,0.595-3.293,0.892-5.198,0.892c-1.934,0-3.673-0.297-5.219-0.892c-1.547-0.594-2.858-1.422-3.936-2.483
			c-1.077-1.061-1.905-2.334-2.485-3.819c-0.58-1.486-0.87-3.134-0.87-4.945V43.441h7.042v18.124c0,0.821,0.104,1.6,0.311,2.335
			c0.207,0.736,0.524,1.395,0.953,1.974c0.428,0.58,0.994,1.04,1.698,1.38c0.704,0.339,1.553,0.509,2.547,0.509
			s1.844-0.17,2.548-0.509c0.704-0.34,1.277-0.8,1.719-1.38c0.441-0.579,0.76-1.237,0.953-1.974c0.192-0.735,0.29-1.514,0.29-2.335
			V43.441h7.083V62.16C363.302,63.971,363.005,65.619,362.412,67.105z"/>
		<path fill="#FFFFFF" d="M395.57,52.694c0,1.755-0.318,3.233-0.953,4.436c-0.636,1.203-1.491,2.173-2.568,2.908
			c-1.077,0.736-2.319,1.273-3.728,1.612c-1.408,0.34-2.872,0.51-4.391,0.51h-3.521v11.333h-7.083V43.441h10.77
			c1.602,0,3.1,0.163,4.495,0.488c1.394,0.325,2.609,0.849,3.645,1.57c1.036,0.722,1.85,1.67,2.444,2.844
			C395.272,49.518,395.57,50.969,395.57,52.694z M388.486,52.737c0-0.707-0.138-1.287-0.414-1.74
			c-0.276-0.452-0.648-0.807-1.118-1.062s-1.001-0.424-1.595-0.509s-1.208-0.128-1.843-0.128h-3.107v7.089h2.982
			c0.663,0,1.298-0.057,1.905-0.17c0.607-0.112,1.153-0.312,1.637-0.595c0.482-0.282,0.862-0.657,1.139-1.124
			S388.486,53.445,388.486,52.737z"/>
		<path fill="#FFFFFF" d="M404.143,73.493V43.441h19.717v6.112h-12.882v5.688h12.178v5.815h-12.178v6.239h13.628v6.197H404.143z"/>
		<path fill="#FFFFFF" d="M449.293,73.493l-6.367-11.928h-2.414v11.928h-6.918V43.441h11.185c1.408,0,2.781,0.148,4.121,0.446
			c1.339,0.297,2.54,0.8,3.604,1.507c1.062,0.707,1.912,1.641,2.548,2.801c0.635,1.161,0.952,2.604,0.952,4.33
			c0,2.037-0.538,3.749-1.615,5.136s-2.568,2.377-4.474,2.971l7.663,12.861H449.293z M449.003,52.652
			c0-0.707-0.146-1.28-0.438-1.719s-0.666-0.778-1.124-1.019s-0.971-0.403-1.54-0.488c-0.568-0.085-1.117-0.128-1.644-0.128h-3.788
			v7.004h3.372c0.582,0,1.179-0.049,1.79-0.148c0.61-0.099,1.165-0.276,1.664-0.531c0.5-0.254,0.909-0.622,1.229-1.104
			C448.843,54.039,449.003,53.416,449.003,52.652z"/>
		<path fill="#FFFFFF" d="M491.957,73.493l0.166-21.266h-0.124l-7.622,21.266h-4.971l-7.414-21.266h-0.124l0.165,21.266h-6.669
			V43.441h10.078l6.677,19.271h0.166l6.387-19.271h10.244v30.052H491.957z"/>
		<path fill="#FFFFFF" d="M529.112,73.493l-2.278-5.9h-11.35l-2.153,5.9h-7.705l12.303-30.052h6.876l12.178,30.052H529.112z
			 M521.242,51.464l-3.729,10.314h7.373L521.242,51.464z"/>
		<path fill="#FFFFFF" d="M559.225,51.252c-0.607-0.792-1.402-1.422-2.382-1.89c-0.98-0.467-1.926-0.7-2.838-0.7
			c-0.47,0-0.945,0.043-1.429,0.128s-0.918,0.248-1.305,0.488s-0.711,0.552-0.974,0.934s-0.394,0.87-0.394,1.464
			c0,0.51,0.104,0.934,0.311,1.273s0.511,0.637,0.912,0.892c0.399,0.255,0.876,0.488,1.429,0.7c0.552,0.212,1.173,0.432,1.864,0.658
			c0.994,0.34,2.029,0.715,3.106,1.125s2.057,0.955,2.94,1.634s1.616,1.521,2.195,2.525c0.58,1.005,0.87,2.257,0.87,3.757
			c0,1.727-0.311,3.219-0.932,4.478c-0.622,1.26-1.457,2.3-2.506,3.12c-1.05,0.821-2.251,1.429-3.604,1.825
			c-1.353,0.396-2.748,0.594-4.184,0.594c-2.099,0-4.128-0.375-6.089-1.124c-1.961-0.75-3.59-1.818-4.888-3.205l4.64-4.839
			c0.718,0.906,1.663,1.663,2.837,2.271c1.174,0.609,2.341,0.913,3.5,0.913c0.524,0,1.036-0.057,1.533-0.17
			c0.497-0.112,0.932-0.297,1.305-0.552s0.669-0.595,0.891-1.019c0.221-0.425,0.331-0.934,0.331-1.528
			c0-0.565-0.139-1.047-0.414-1.443c-0.276-0.396-0.67-0.757-1.181-1.082s-1.146-0.622-1.905-0.892
			c-0.76-0.269-1.622-0.559-2.589-0.87c-0.939-0.311-1.857-0.679-2.755-1.104s-1.698-0.969-2.402-1.634s-1.271-1.472-1.698-2.42
			c-0.429-0.947-0.642-2.101-0.642-3.459c0-1.669,0.331-3.099,0.994-4.287c0.662-1.188,1.532-2.165,2.609-2.929
			s2.292-1.322,3.646-1.677c1.353-0.354,2.719-0.53,4.101-0.53c1.656,0,3.348,0.312,5.074,0.934
			c1.725,0.623,3.237,1.543,4.535,2.759L559.225,51.252z"/>
		<path fill="#FFFFFF" d="M588.012,51.252c-0.607-0.792-1.402-1.422-2.382-1.89c-0.98-0.467-1.926-0.7-2.838-0.7
			c-0.47,0-0.945,0.043-1.429,0.128s-0.918,0.248-1.305,0.488s-0.711,0.552-0.974,0.934s-0.394,0.87-0.394,1.464
			c0,0.51,0.104,0.934,0.311,1.273s0.511,0.637,0.912,0.892c0.399,0.255,0.876,0.488,1.429,0.7c0.552,0.212,1.173,0.432,1.864,0.658
			c0.994,0.34,2.029,0.715,3.106,1.125s2.057,0.955,2.94,1.634s1.616,1.521,2.195,2.525c0.58,1.005,0.87,2.257,0.87,3.757
			c0,1.727-0.311,3.219-0.932,4.478c-0.622,1.26-1.457,2.3-2.506,3.12c-1.05,0.821-2.251,1.429-3.604,1.825
			c-1.353,0.396-2.748,0.594-4.184,0.594c-2.099,0-4.128-0.375-6.089-1.124c-1.961-0.75-3.59-1.818-4.888-3.205l4.64-4.839
			c0.718,0.906,1.663,1.663,2.837,2.271c1.174,0.609,2.341,0.913,3.5,0.913c0.524,0,1.036-0.057,1.533-0.17
			c0.497-0.112,0.932-0.297,1.305-0.552s0.669-0.595,0.891-1.019c0.221-0.425,0.331-0.934,0.331-1.528
			c0-0.565-0.139-1.047-0.414-1.443c-0.276-0.396-0.67-0.757-1.181-1.082s-1.146-0.622-1.905-0.892
			c-0.76-0.269-1.622-0.559-2.589-0.87c-0.939-0.311-1.857-0.679-2.755-1.104s-1.698-0.969-2.402-1.634s-1.271-1.472-1.698-2.42
			c-0.429-0.947-0.642-2.101-0.642-3.459c0-1.669,0.331-3.099,0.994-4.287c0.662-1.188,1.532-2.165,2.609-2.929
			s2.292-1.322,3.646-1.677c1.353-0.354,2.719-0.53,4.101-0.53c1.656,0,3.348,0.312,5.074,0.934
			c1.725,0.623,3.237,1.543,4.535,2.759L588.012,51.252z"/>
		<path fill="#FFFFFF" d="M601.308,73.493V43.441h7.125v30.052H601.308z"/>
		<path fill="#FFFFFF" d="M633.327,73.493h-7.083l-11.101-30.052h7.953l6.793,21.308h0.165l6.752-21.308h7.829L633.327,73.493z"/>
		<path fill="#FFFFFF" d="M651.344,73.493V43.441h19.717v6.112h-12.882v5.688h12.178v5.815h-12.178v6.239h13.628v6.197H651.344z"/>
	</g>
</g>
</svg>
